HIERARCHY
ROOT Root
{
  OFFSET 0.0 0.0 0.0
  CHANNELS 6 Xposition Yposition Zposition Zrotation Yrotation Xrotation
  JOINT Hips
  {
    OFFSET 0.0 100.0 0.0
    CHANNELS 6 Xposition Yposition Zposition Zrotation Yrotation Xrotation
    JOINT Spine1
    {
      OFFSET 5.003913 -0.037094 -0.013727
      CHANNELS 3 Zrotation Yrotation Xrotation
      JOINT Spine2
      {
        OFFSET 7.125363 -1e-06 0.0
        CHANNELS 3 Zrotation Yrotation Xrotation
        JOINT Chest
        {
          OFFSET 7.594027 1e-06 0.0
          CHANNELS 3 Zrotation Yrotation Xrotation
          JOINT Neck1
          {
            OFFSET 26.313086 -0.460272 -0.181672
            CHANNELS 3 Zrotation Yrotation Xrotation
            JOINT Neck2
            {
              OFFSET 8.045911 0.0 0.0
              CHANNELS 3 Zrotation Yrotation Xrotation
              JOINT Head
              {
                OFFSET 6.432774 0.0 0.0
                CHANNELS 3 Zrotation Yrotation Xrotation
                JOINT HeadEnd
                {
                  OFFSET 16.169773 0.06451 0.00362
                  CHANNELS 3 Zrotation Yrotation Xrotation
                }
                JOINT Jaw
                {
                  OFFSET 0.108741 3.12938 0.002639
                  CHANNELS 3 Zrotation Yrotation Xrotation
                }
                JOINT LeftEye
                {
                  OFFSET 4.45173 8.166359 3.206392
                  CHANNELS 3 Zrotation Yrotation Xrotation
                }
                JOINT RightEye
                {
                  OFFSET 4.436895 8.135758 -3.222429
                  CHANNELS 3 Zrotation Yrotation Xrotation
                }
              }
            }
          }
          JOINT LeftShoulder
          {
            OFFSET 23.218927 5.195579 1.621656
            CHANNELS 3 Zrotation Yrotation Xrotation
            JOINT LeftArm
            {
              OFFSET 15.902118 2e-06 -2e-06
              CHANNELS 3 Zrotation Yrotation Xrotation
              JOINT LeftForeArm
              {
                OFFSET 28.739307 0.0 -1e-06
                CHANNELS 3 Zrotation Yrotation Xrotation
                JOINT LeftHand
                {
                  OFFSET 27.093981 -4e-06 0.0
                  CHANNELS 3 Zrotation Yrotation Xrotation
                  JOINT LeftHandThumb1
                  {
                    OFFSET 2.276781 3.380274 0.83384
                    CHANNELS 3 Zrotation Yrotation Xrotation
                    JOINT LeftHandThumb2
                    {
                      OFFSET 4.705309 -1e-06 -1e-06
                      CHANNELS 3 Zrotation Yrotation Xrotation
                      JOINT LeftHandThumb3
                      {
                        OFFSET 2.798515 0.0 3e-06
                        CHANNELS 3 Zrotation Yrotation Xrotation
                        JOINT LeftHandThumbEnd
                        {
                          OFFSET 3.180793 4e-06 -4e-06
                          CHANNELS 3 Zrotation Yrotation Xrotation
                        }
                      }
                    }
                  }
                  JOINT LeftHandIndex1
                  {
                    OFFSET 3.247786 2.352677 0.137192
                    CHANNELS 3 Zrotation Yrotation Xrotation
                    JOINT LeftHandIndex2
                    {
                      OFFSET 6.367095 1e-06 0.0
                      CHANNELS 3 Zrotation Yrotation Xrotation
                      JOINT LeftHandIndex3
                      {
                        OFFSET 3.662364 0.0 0.0
                        CHANNELS 3 Zrotation Yrotation Xrotation
                        JOINT LeftHandIndex4
                        {
                          OFFSET 2.329242 4e-06 -4e-06
                          CHANNELS 3 Zrotation Yrotation Xrotation
                          JOINT LeftHandIndexEnd
                          {
                            OFFSET 2.767823 1e-06 0.0
                            CHANNELS 3 Zrotation Yrotation Xrotation
                          }
                        }
                      }
                    }
                  }
                  JOINT LeftHandMiddle1
                  {
                    OFFSET 3.163612 0.945023 -0.406112
                    CHANNELS 3 Zrotation Yrotation Xrotation
                    JOINT LeftHandMiddle2
                    {
                      OFFSET 6.276789 3e-06 0.0
                      CHANNELS 3 Zrotation Yrotation Xrotation
                      JOINT LeftHandMiddle3
                      {
                        OFFSET 4.35652 -1e-06 4e-06
                        CHANNELS 3 Zrotation Yrotation Xrotation
                        JOINT LeftHandMiddle4
                        {
                          OFFSET 2.996877 0.0 8e-06
                          CHANNELS 3 Zrotation Yrotation Xrotation
                          JOINT LeftHandMiddleEnd
                          {
                            OFFSET 2.323256 3e-06 -4e-06
                            CHANNELS 3 Zrotation Yrotation Xrotation
                          }
                        }
                      }
                    }
                  }
                  JOINT LeftHandRing1
                  {
                    OFFSET 2.882606 -0.309162 0.107445
                    CHANNELS 3 Zrotation Yrotation Xrotation
                    JOINT LeftHandRing2
                    {
                      OFFSET 6.033198 0.0 4e-06
                      CHANNELS 3 Zrotation Yrotation Xrotation
                      JOINT LeftHandRing3
                      {
                        OFFSET 4.350578 3e-06 0.0
                        CHANNELS 3 Zrotation Yrotation Xrotation
                        JOINT LeftHandRing4
                        {
                          OFFSET 2.651321 2e-06 -7e-06
                          CHANNELS 3 Zrotation Yrotation Xrotation
                          JOINT LeftHandRingEnd
                          {
                            OFFSET 1.937663 1e-06 -4e-06
                            CHANNELS 3 Zrotation Yrotation Xrotation
                          }
                        }
                      }
                    }
                  }
                  JOINT LeftHandPinky1
                  {
                    OFFSET 2.865315 -1.525436 0.575687
                    CHANNELS 3 Zrotation Yrotation Xrotation
                    JOINT LeftHandPinky2
                    {
                      OFFSET 5.54936 1e-06 -8e-06
                      CHANNELS 3 Zrotation Yrotation Xrotation
                      JOINT LeftHandPinky3
                      {
                        OFFSET 3.070974 0.0 -4e-06
                        CHANNELS 3 Zrotation Yrotation Xrotation
                        JOINT LeftHandPinky4
                        {
                          OFFSET 1.549672 1e-06 0.0
                          CHANNELS 3 Zrotation Yrotation Xrotation
                          JOINT LeftHandPinkyEnd
                          {
                            OFFSET 1.952123 0.0 0.0
                            CHANNELS 3 Zrotation Yrotation Xrotation
                          }
                        }
                      }
                    }
                  }
                }
              }
            }
          }
          JOINT RightShoulder
          {
            OFFSET 23.161716 5.296122 -1.380114
            CHANNELS 3 Zrotation Yrotation Xrotation
            JOINT RightArm
            {
              OFFSET -16.027195 -2e-06 1.1e-05
              CHANNELS 3 Zrotation Yrotation Xrotation
              JOINT RightForeArm
              {
                OFFSET -28.736639 4e-06 2e-06
                CHANNELS 3 Zrotation Yrotation Xrotation
                JOINT RightHand
                {
                  OFFSET -27.133619 6e-06 0.0
                  CHANNELS 3 Zrotation Yrotation Xrotation
                  JOINT RightHandThumb1
                  {
                    OFFSET -2.274328 -3.351035 -0.83067
                    CHANNELS 3 Zrotation Yrotation Xrotation
                    JOINT RightHandThumb2
                    {
                      OFFSET -4.703594 -3e-06 2e-06
                      CHANNELS 3 Zrotation Yrotation Xrotation
                      JOINT RightHandThumb3
                      {
                        OFFSET -2.794935 -4e-06 -3e-06
                        CHANNELS 3 Zrotation Yrotation Xrotation
                        JOINT RightHandThumbEnd
                        {
                          OFFSET -3.183852 4e-06 1e-06
                          CHANNELS 3 Zrotation Yrotation Xrotation
                        }
                      }
                    }
                  }
                  JOINT RightHandIndex1
                  {
                    OFFSET -3.253496 -2.33755 -0.127667
                    CHANNELS 3 Zrotation Yrotation Xrotation
                    JOINT RightHandIndex2
                    {
                      OFFSET -6.344434 0.0 0.0
                      CHANNELS 3 Zrotation Yrotation Xrotation
                      JOINT RightHandIndex3
                      {
                        OFFSET -3.654871 0.0 -8e-06
                        CHANNELS 3 Zrotation Yrotation Xrotation
                        JOINT RightHandIndex4
                        {
                          OFFSET -2.327586 -1e-06 0.0
                          CHANNELS 3 Zrotation Yrotation Xrotation
                          JOINT RightHandIndexEnd
                          {
                            OFFSET -2.770001 3e-06 8e-06
                            CHANNELS 3 Zrotation Yrotation Xrotation
                          }
                        }
                      }
                    }
                  }
                  JOINT RightHandMiddle1
                  {
                    OFFSET -3.168223 -0.944764 0.411762
                    CHANNELS 3 Zrotation Yrotation Xrotation
                    JOINT RightHandMiddle2
                    {
                      OFFSET -6.266691 -1e-06 -4e-06
                      CHANNELS 3 Zrotation Yrotation Xrotation
                      JOINT RightHandMiddle3
                      {
                        OFFSET -4.348901 0.0 0.0
                        CHANNELS 3 Zrotation Yrotation Xrotation
                        JOINT RightHandMiddle4
                        {
                          OFFSET -3.00024 2e-06 -4e-06
                          CHANNELS 3 Zrotation Yrotation Xrotation
                          JOINT RightHandMiddleEnd
                          {
                            OFFSET -2.321477 -4e-06 -4e-06
                            CHANNELS 3 Zrotation Yrotation Xrotation
                          }
                        }
                      }
                    }
                  }
                  JOINT RightHandRing1
                  {
                    OFFSET -2.885654 0.293261 -0.119232
                    CHANNELS 3 Zrotation Yrotation Xrotation
                    JOINT RightHandRing2
                    {
                      OFFSET -6.032835 -1e-06 -4e-06
                      CHANNELS 3 Zrotation Yrotation Xrotation
                      JOINT RightHandRing3
                      {
                        OFFSET -4.33881 0.0 -4e-06
                        CHANNELS 3 Zrotation Yrotation Xrotation
                        JOINT RightHandRing4
                        {
                          OFFSET -2.654903 -4e-06 -4e-06
                          CHANNELS 3 Zrotation Yrotation Xrotation
                          JOINT RightHandRingEnd
                          {
                            OFFSET -1.935122 0.0 4e-06
                            CHANNELS 3 Zrotation Yrotation Xrotation
                          }
                        }
                      }
                    }
                  }
                  JOINT RightHandPinky1
                  {
                    OFFSET -2.866241 1.503904 -0.60527
                    CHANNELS 3 Zrotation Yrotation Xrotation
                    JOINT RightHandPinky2
                    {
                      OFFSET -5.553177 -2e-06 0.0
                      CHANNELS 3 Zrotation Yrotation Xrotation
                      JOINT RightHandPinky3
                      {
                        OFFSET -3.062664 -1e-06 -4e-06
                        CHANNELS 3 Zrotation Yrotation Xrotation
                        JOINT RightHandPinky4
                        {
                          OFFSET -1.546529 2e-06 4e-06
                          CHANNELS 3 Zrotation Yrotation Xrotation
                          JOINT RightHandPinkyEnd
                          {
                            OFFSET -1.952341 0.0 -4e-06
                            CHANNELS 3 Zrotation Yrotation Xrotation
                          }
                        }
                      }
                    }
                  }
                }
              }
            }
          }
        }
      }
    }
    JOINT LeftLeg
    {
      OFFSET -8.443107 2.567604 10.043214
      CHANNELS 3 Zrotation Yrotation Xrotation
      JOINT LeftShin
      {
        OFFSET 43.229198 1e-06 -1e-06
        CHANNELS 3 Zrotation Yrotation Xrotation
        JOINT LeftFoot
        {
          OFFSET 42.298611 1e-06 1e-06
          CHANNELS 3 Zrotation Yrotation Xrotation
          JOINT LeftToeBase
          {
            OFFSET 14.165858 1e-06 0.0
            CHANNELS 3 Zrotation Yrotation Xrotation
            JOINT LeftToeEnd
            {
              OFFSET 6.7141 -0.234461 0.0
              CHANNELS 3 Zrotation Yrotation Xrotation
            }
          }
        }
      }
    }
    JOINT RightLeg
    {
      OFFSET -8.303923 2.592729 -10.047278
      CHANNELS 3 Zrotation Yrotation Xrotation
      JOINT RightShin
      {
        OFFSET -43.369682 0.0 1e-06
        CHANNELS 3 Zrotation Yrotation Xrotation
        JOINT RightFoot
        {
          OFFSET -42.260784 4e-06 2e-06
          CHANNELS 3 Zrotation Yrotation Xrotation
          JOINT RightToeBase
          {
            OFFSET -14.222245 -2e-06 -1e-06
            CHANNELS 3 Zrotation Yrotation Xrotation
            JOINT RightToeEnd
            {
              OFFSET -6.660062 0.232574 -2e-06
              CHANNELS 3 Zrotation Yrotation Xrotation
            }
          }
        }
      }
    }
  }
}
MOTION
Frames: 4
Frame Time: 0.03333333333333333
0.0 0.0 0.0 0.0 -0.0 0.0 0.090298 100.594757 6.046157 91.909508 1.536584 89.619461 -2.568293 -0.488666 0.027708 -11.730702 -0.69469 0.466453 16.877031 -1.58003 -1.938292 23.434862 1.130473 2.823981 -2.554586 -0.633029 1.176806 -30.223413 0.941551 0.565568 6e-06 0.0 -0.0 0.009625 0.004419 0.000758 -0.023792 0.043196 0.003921 -0.011119 -0.035825 0.004206 -116.141861 -74.901169 131.910782 46.098671 -61.887947 -6.155674 21.888561 -0.39452 0.023967 4.480968 -4.761359 10.438135 17.636631 -26.322733 52.411205 -19.466661 -14.395596 29.410389 -1e-06 -8.77482 -3e-06 15.953426 -18.066624 6.066308 -0.609777 -1.795653 -3.88933 -4.807088 -11.04681 -2.93785 5e-06 -20.976019 -2e-06 -5.019972 -25.033556 -4.031876 8e-06 0.0 -0.0 -10.634533 -5.686971 -3.565589 10.573275 -17.922949 -3.113901 3e-06 -13.821209 0.0 -0.501777 -31.181511 -4.027018 -11.500443 -59.459476 7.386945 -13.982712 -7.150198 -2.875045 13.772729 -8.401491 -3.218242 0.347737 -34.211555 0.771654 -0.963029 -17.733374 2.62102 0.0 1e-06 2e-06 -17.346416 -20.095217 -4.201784 21.757557 -1.638376 3.866426 3e-06 -6.338823 -1e-06 -1.697589 -22.591743 -6.194007 1e-06 -4e-06 -0.0 44.048176 -75.774742 151.008713 41.40152 -61.126404 -0.42867 23.801725 0.192201 0.144865 -1.138273 2.138865 21.349295 22.182114 -20.375895 49.933319 -16.701813 -16.743528 28.47653 -4e-06 -12.690599 -2e-06 16.225386 -17.642593 2.52645 -0.10592 -1.513857 -4.275881 -5.039041 -5.612871 -2.953558 4e-06 -11.020525 -1e-06 -6.111298 -15.895334 -3.840472 -0.0 -0.0 1e-06 -10.283369 -5.680288 -4.341839 11.028294 -11.302406 -2.372633 -1.384269 -14.23858 -6.32012 -0.625437 -26.924191 -3.827603 -4.107131 -49.775826 -4.187227 -13.708524 -7.363476 -3.720943 18.14115 -14.052739 -3.242676 7e-06 -18.78727 -2e-06 -0.42971 -8.456043 2.555505 0.0 -2e-06 0.0 -15.923532 -20.094482 -5.473585 30.41921 -7.190827 1.735925 3e-06 -8.162925 -1e-06 -1.861896 -22.861469 -6.167943 -1e-06 -4e-06 0.0 -177.372482 -2.643567 -3.184105 5.855981 -0.053502 -0.044816 -72.954018 -3.924502 -8.213974 -8.939109 1.688796 2.051972 -0.999998 0.0 0.0 0.847924 -8.375236 -6.987888 8.542441 0.03962 0.037565 -75.025719 -2.494828 -7.421429 -8.439972 0.725035 1.615981 -1.000002 0.0 -0.0 
0.0 0.0 0.0 0.0 -0.0 0.0 0.135929 100.596237 6.231828 91.934105 1.496176 89.423141 -2.543706 -0.516418 0.009209 -11.72487 -0.684931 0.494826 16.814867 -1.590218 -1.971913 23.345091 1.177431 2.828891 -2.533527 -0.627896 1.213294 -30.235821 0.924404 0.631692 6e-06 0.0 -0.0 0.004513 0.002766 0.019666 -0.021932 0.041126 0.022184 -0.008481 -0.036989 0.023055 -115.811813 -75.044029 131.571564 46.265419 -62.047173 -6.284748 21.928968 -0.402137 -0.006031 4.424527 -4.977194 10.530717 17.636623 -26.322731 52.411194 -19.466656 -14.395597 29.410389 -0.0 -8.774819 -2e-06 15.98796 -18.043375 6.036447 -0.609777 -1.795654 -3.889327 -4.807088 -11.046807 -2.93785 4e-06 -20.976015 -1e-06 -5.019969 -25.033552 -4.031879 7e-06 2e-06 1e-06 -10.634533 -5.686971 -3.565587 10.573271 -17.922947 -3.113904 1e-06 -13.821205 -0.0 -0.501776 -31.181501 -4.027017 -11.50328 -59.466393 7.466555 -13.982712 -7.150197 -2.875042 13.772725 -8.401491 -3.218239 0.347729 -34.211544 0.771656 -0.96303 -17.733368 2.621019 -1e-06 -0.0 1e-06 -17.346418 -20.095217 -4.201779 21.757555 -1.638374 3.866428 2e-06 -6.338822 1e-06 -1.697589 -22.591743 -6.194007 -1e-06 -3e-06 -2e-06 44.033813 -75.833588 151.012497 41.435673 -61.18351 -0.730692 23.781158 0.185734 0.143821 -1.145288 2.081906 21.276892 22.182114 -20.375898 49.933327 -16.701811 -16.74353 28.47653 -3e-06 -12.6906 -2e-06 16.269373 -17.643642 2.49876 -0.10592 -1.513855 -4.275882 -5.039042 -5.612872 -2.953557 4e-06 -11.020524 -0.0 -6.111298 -15.89533 -3.840475 1e-06 1e-06 -0.0 -10.283368 -5.680288 -4.34184 11.028292 -11.302404 -2.372632 -1.38427 -14.238579 -6.320121 -0.625439 -26.924192 -3.827602 -4.122767 -49.905071 -4.173641 -13.708524 -7.363475 -3.72094 18.141146 -14.052738 -3.242673 6e-06 -18.787268 -0.0 -0.429713 -8.456041 2.555505 0.0 -2e-06 0.0 -15.923532 -20.094481 -5.473588 30.419201 -7.190823 1.735928 4e-06 -8.162925 -0.0 -1.861903 -22.861465 -6.16794 -2e-06 -1e-06 0.0 -177.288513 -2.570791 -3.215198 5.861178 -0.04364 -0.002653 -73.014931 -4.145652 -8.342971 -8.966936 1.706492 2.061189 -0.999999 0.0 0.0 0.713433 -8.459496 -6.797918 8.748293 0.032533 0.053906 -75.078346 -2.539679 -7.36796 -8.525159 0.711117 1.615942 -1.000001 -0.0 -0.0 
0.0 0.0 0.0 0.0 -0.0 0.0 0.204385 100.591614 6.429628 91.964638 1.466848 89.157944 -2.515942 -0.54307 -0.002389 -11.739308 -0.689687 0.481774 16.840984 -1.587345 -1.969909 23.255396 1.207786 2.854998 -2.552111 -0.61391 1.24683 -30.230282 0.871787 0.729104 7e-06 0.0 0.0 -0.002265 0.001574 0.015316 -0.03361 0.03616 0.020063 -0.017904 -0.034645 0.015672 -115.498993 -75.194176 131.291748 46.452438 -62.129135 -6.48941 22.022701 -0.438211 -0.029743 4.314259 -5.23214 10.559088 17.636633 -26.322733 52.41119 -19.466661 -14.395596 29.410389 -0.0 -8.774821 -2e-06 16.036776 -18.06884 6.006588 -0.609777 -1.795655 -3.889324 -4.807087 -11.04681 -2.937851 5e-06 -20.976019 -3e-06 -5.01997 -25.033556 -4.031881 6e-06 1e-06 0.0 -10.634534 -5.686972 -3.565585 10.573274 -17.922951 -3.113901 3e-06 -13.821209 -2e-06 -0.501777 -31.181505 -4.027016 -11.535894 -59.471024 7.463351 -13.982716 -7.150198 -2.875042 13.77273 -8.401494 -3.218242 0.347734 -34.211555 0.771653 -0.963029 -17.73337 2.621019 -1e-06 1e-06 1e-06 -17.346418 -20.095219 -4.201782 21.757555 -1.638376 3.866429 1e-06 -6.338824 0.0 -1.697586 -22.591745 -6.194006 -1e-06 -6e-06 -2e-06 43.908188 -75.90715 151.126892 41.511288 -61.199226 -1.147152 23.797239 0.134223 0.120472 -1.198384 2.036604 21.330193 22.182117 -20.375898 49.933319 -16.701815 -16.743528 28.476532 -4e-06 -12.690601 0.0 16.298555 -17.629202 2.485346 -0.105918 -1.513855 -4.275881 -5.039041 -5.612871 -2.953557 5e-06 -11.020523 -1e-06 -6.111297 -15.89533 -3.840473 -1e-06 -1e-06 1e-06 -10.28337 -5.680287 -4.341843 11.028294 -11.302405 -2.372633 -1.384269 -14.238581 -6.320121 -0.625441 -26.924191 -3.827599 -4.114071 -49.937454 -4.190402 -13.708522 -7.363473 -3.720941 18.141148 -14.05274 -3.242677 9e-06 -18.78727 -1e-06 -0.42971 -8.456045 2.555502 1e-06 -1e-06 -1e-06 -15.923532 -20.094479 -5.473585 30.419207 -7.190827 1.735922 4e-06 -8.162925 -1e-06 -1.861902 -22.861467 -6.16794 1e-06 -5e-06 -2e-06 -177.288788 -2.494384 -3.295261 6.07549 -0.040612 0.011644 -73.161514 -4.362589 -8.41646 -8.955444 1.70583 2.067481 -0.999999 0.0 0.0 0.52212 -8.571472 -6.545714 9.041342 0.02618 0.063879 -75.161278 -2.556956 -7.392574 -8.520979 0.70637 1.616709 -1.000002 -0.0 -0.0 
0.0 0.0 0.0 0.0 -0.0 0.0 0.250783 100.577721 6.595875 91.986252 1.46221 88.815392 -2.482612 -0.574456 -0.006428 -11.749488 -0.701662 0.453724 16.906898 -1.562567 -1.940128 23.168633 1.21284 2.885813 -2.578359 -0.601268 1.314421 -30.28896 0.819034 0.861293 6e-06 -0.0 -0.0 -0.006805 0.000126 0.002162 -0.048021 0.034242 0.009312 -0.030202 -0.035977 -0.000257 -115.214104 -75.32135 131.056183 46.629414 -62.137749 -6.530942 22.117159 -0.46699 -0.040078 4.229202 -5.371689 10.627001 17.636635 -26.322737 52.411198 -19.466671 -14.3956 29.410398 -0.0 -8.774822 -2e-06 16.064983 -18.072491 5.995974 -0.609776 -1.795655 -3.889327 -4.807088 -11.046813 -2.937854 5e-06 -20.976025 -2e-06 -5.019969 -25.033566 -4.03188 5e-06 4e-06 1e-06 -10.634535 -5.686972 -3.565585 10.573277 -17.922958 -3.113903 5e-06 -13.821213 -1e-06 -0.501773 -31.181522 -4.027019 -11.563726 -59.478645 7.46102 -13.982716 -7.150199 -2.875044 13.772735 -8.401495 -3.218241 0.347736 -34.211559 0.771656 -0.963029 -17.733372 2.621023 -1e-06 -1e-06 -0.0 -17.34642 -20.095221 -4.201783 21.757561 -1.638377 3.86643 1e-06 -6.338825 1e-06 -1.697586 -22.591753 -6.19401 -3e-06 -1e-06 1e-06 43.809299 -75.997116 151.22905 41.656574 -61.198631 -1.431561 23.831547 0.143595 0.106964 -1.249405 1.950209 21.43128 22.182112 -20.375891 49.933315 -16.701817 -16.74353 28.47653 -2e-06 -12.690602 -2e-06 16.295708 -17.597416 2.49191 -0.105918 -1.513855 -4.275881 -5.039042 -5.612872 -2.953552 3e-06 -11.020525 -3e-06 -6.1113 -15.895334 -3.840472 -0.0 1e-06 -1e-06 -10.283369 -5.680287 -4.341835 11.028294 -11.302404 -2.372633 -1.38427 -14.238579 -6.320118 -0.625438 -26.924187 -3.827603 -4.118175 -49.883492 -4.170509 -13.708525 -7.363477 -3.720937 18.14115 -14.052737 -3.242676 6e-06 -18.787268 -2e-06 -0.429711 -8.456043 2.555502 1e-06 -1e-06 -0.0 -15.923536 -20.094484 -5.473582 30.41921 -7.190824 1.735925 3e-06 -8.162927 -1e-06 -1.861904 -22.861473 -6.167946 -1e-06 -4e-06 -1e-06 -177.357147 -2.43518 -3.486948 6.483304 -0.041006 0.015008 -73.399429 -4.581839 -8.496763 -8.915882 1.700306 2.07075 -0.999999 0.0 0.0 0.199051 -8.692342 -6.268488 9.494628 0.020778 0.059962 -75.276306 -2.44933 -7.458664 -8.493029 0.698052 1.615857 -1.000001 -0.0 -0.0 
